<svg xmlns="http://www.w3.org/2000/svg" width="13.345" height="21.5" viewBox="0 0 13.345 21.5">
  <g id="fire" transform="translate(-97.103 0.001)">
    <path id="Path_10" data-name="Path 10" d="M97.1,14.827a6.672,6.672,0,0,0,6.672,6.672h0a6.672,6.672,0,0,0,6.672-6.672c0-3.707-1.853-6.672-.61-9.267,0,0-1.985.371-3.1,3.336A9.411,9.411,0,0,1,104.583,0,6,6,0,0,0,101.2,6.3c.338,4.132-.395,4.819-.395,4.819A5.691,5.691,0,0,0,98.2,6.3C98.956,10.378,97.1,11.49,97.1,14.827Z" fill="#f3d50c"/>
    <path id="Path_11" data-name="Path 11" d="M158.988,177.089a4.959,4.959,0,0,1-4.918,5.091,4.254,4.254,0,0,1-4.347-4.633,11.235,11.235,0,0,1,2.409-4.935l.958.579a19.39,19.39,0,0,1,1.081-5.468C154.9,171.011,158.988,171.863,158.988,177.089Z" transform="translate(-50.396 -160.682)" fill="#ffdc64"/>
    <path id="Path_12" data-name="Path 12" d="M186.491,284.707c-.371,2.224-1.112,3.034-1.112,4.448a3.07,3.07,0,0,0,2.966,2.966h0a2.975,2.975,0,0,0,2.965-3,9.019,9.019,0,0,0-2.595-6.64,3.879,3.879,0,0,1-.741,3.336A3.766,3.766,0,0,0,186.491,284.707Z" transform="translate(-84.569 -270.622)" fill="#fff"/>
  </g>
</svg>
