<svg id="left-quotes-sign" xmlns="http://www.w3.org/2000/svg" width="29" height="25.062" viewBox="0 0 29 25.062">
  <g id="Group_42" data-name="Group 42">
    <path id="Path_3970" data-name="Path 3970" d="M.006,52.7a6.913,6.913,0,1,0,4.662-6.513c1.552-8.9,8.488-14.64,2.059-9.917C-.407,41.5,0,52.487.007,52.689A.038.038,0,0,1,.006,52.7Z" transform="translate(-0.001 -34.571)" fill="#fff"/>
    <path id="Path_3971" data-name="Path 3971" d="M266.067,52.7a6.913,6.913,0,1,0,4.662-6.513c1.551-8.9,8.491-14.637,2.058-9.914-7.133,5.238-6.728,16.221-6.72,16.423C266.067,52.693,266.067,52.7,266.067,52.7Z" transform="translate(-250.893 -34.572)" fill="#fff"/>
  </g>
</svg>
