<svg xmlns="http://www.w3.org/2000/svg" xmlns:xlink="http://www.w3.org/1999/xlink" width="302" height="330" viewBox="0 0 302 330"><defs><clipPath id="b"><rect width="302" height="330"/></clipPath></defs><g id="a" clip-path="url(#b)"><g opacity="0.15"><g transform="translate(-46 -833)"><g transform="translate(0 795)" fill="none" stroke="#707070" stroke-width="1"><circle cx="23" cy="23" r="23" stroke="none"/><circle cx="23" cy="23" r="22.5" fill="none"/></g><g transform="translate(20 795)" fill="none" stroke="#707070" stroke-width="1"><circle cx="23" cy="23" r="23" stroke="none"/><circle cx="23" cy="23" r="22.5" fill="none"/></g></g><g transform="translate(1 -833)"><g transform="translate(0 795)" fill="none" stroke="#707070" stroke-width="1"><circle cx="23" cy="23" r="23" stroke="none"/><circle cx="23" cy="23" r="22.5" fill="none"/></g><g transform="translate(20 795)" fill="none" stroke="#707070" stroke-width="1"><circle cx="23" cy="23" r="23" stroke="none"/><circle cx="23" cy="23" r="22.5" fill="none"/></g></g><g transform="translate(48 -833)"><g transform="translate(0 795)" fill="none" stroke="#707070" stroke-width="1"><circle cx="23" cy="23" r="23" stroke="none"/><circle cx="23" cy="23" r="22.5" fill="none"/></g><g transform="translate(20 795)" fill="none" stroke="#707070" stroke-width="1"><circle cx="23" cy="23" r="23" stroke="none"/><circle cx="23" cy="23" r="22.5" fill="none"/></g></g><g transform="translate(95 -833)"><g transform="translate(0 795)" fill="none" stroke="#707070" stroke-width="1"><circle cx="23" cy="23" r="23" stroke="none"/><circle cx="23" cy="23" r="22.5" fill="none"/></g><g transform="translate(20 795)" fill="none" stroke="#707070" stroke-width="1"><circle cx="23" cy="23" r="23" stroke="none"/><circle cx="23" cy="23" r="22.5" fill="none"/></g></g><g transform="translate(142 -833)"><g transform="translate(0 795)" fill="none" stroke="#707070" stroke-width="1"><circle cx="23" cy="23" r="23" stroke="none"/><circle cx="23" cy="23" r="22.5" fill="none"/></g><g transform="translate(20 795)" fill="none" stroke="#707070" stroke-width="1"><circle cx="23" cy="23" r="23" stroke="none"/><circle cx="23" cy="23" r="22.5" fill="none"/></g></g><g transform="translate(189 -833)"><g transform="translate(0 795)" fill="none" stroke="#707070" stroke-width="1"><circle cx="23" cy="23" r="23" stroke="none"/><circle cx="23" cy="23" r="22.5" fill="none"/></g><g transform="translate(20 795)" fill="none" stroke="#707070" stroke-width="1"><circle cx="23" cy="23" r="23" stroke="none"/><circle cx="23" cy="23" r="22.5" fill="none"/></g></g><g transform="translate(236 -833)"><g transform="translate(0 795)" fill="none" stroke="#707070" stroke-width="1"><circle cx="23" cy="23" r="23" stroke="none"/><circle cx="23" cy="23" r="22.5" fill="none"/></g><g transform="translate(20 795)" fill="none" stroke="#707070" stroke-width="1"><circle cx="23" cy="23" r="23" stroke="none"/><circle cx="23" cy="23" r="22.5" fill="none"/></g></g><g transform="translate(283 -833)"><g transform="translate(0 795)" fill="none" stroke="#707070" stroke-width="1"><circle cx="23" cy="23" r="23" stroke="none"/><circle cx="23" cy="23" r="22.5" fill="none"/></g><g transform="translate(20 795)" fill="none" stroke="#707070" stroke-width="1"><circle cx="23" cy="23" r="23" stroke="none"/><circle cx="23" cy="23" r="22.5" fill="none"/></g></g><g transform="translate(-46 -803)"><g transform="translate(0 795)" fill="none" stroke="#707070" stroke-width="1"><circle cx="23" cy="23" r="23" stroke="none"/><circle cx="23" cy="23" r="22.5" fill="none"/></g><g transform="translate(20 795)" fill="none" stroke="#707070" stroke-width="1"><circle cx="23" cy="23" r="23" stroke="none"/><circle cx="23" cy="23" r="22.5" fill="none"/></g></g><g transform="translate(1 -803)"><g transform="translate(0 795)" fill="none" stroke="#707070" stroke-width="1"><circle cx="23" cy="23" r="23" stroke="none"/><circle cx="23" cy="23" r="22.5" fill="none"/></g><g transform="translate(20 795)" fill="none" stroke="#707070" stroke-width="1"><circle cx="23" cy="23" r="23" stroke="none"/><circle cx="23" cy="23" r="22.5" fill="none"/></g></g><g transform="translate(48 -803)"><g transform="translate(0 795)" fill="none" stroke="#707070" stroke-width="1"><circle cx="23" cy="23" r="23" stroke="none"/><circle cx="23" cy="23" r="22.5" fill="none"/></g><g transform="translate(20 795)" fill="none" stroke="#707070" stroke-width="1"><circle cx="23" cy="23" r="23" stroke="none"/><circle cx="23" cy="23" r="22.5" fill="none"/></g></g><g transform="translate(95 -803)"><g transform="translate(0 795)" fill="none" stroke="#707070" stroke-width="1"><circle cx="23" cy="23" r="23" stroke="none"/><circle cx="23" cy="23" r="22.5" fill="none"/></g><g transform="translate(20 795)" fill="none" stroke="#707070" stroke-width="1"><circle cx="23" cy="23" r="23" stroke="none"/><circle cx="23" cy="23" r="22.5" fill="none"/></g></g><g transform="translate(142 -803)"><g transform="translate(0 795)" fill="none" stroke="#707070" stroke-width="1"><circle cx="23" cy="23" r="23" stroke="none"/><circle cx="23" cy="23" r="22.5" fill="none"/></g><g transform="translate(20 795)" fill="none" stroke="#707070" stroke-width="1"><circle cx="23" cy="23" r="23" stroke="none"/><circle cx="23" cy="23" r="22.5" fill="none"/></g></g><g transform="translate(189 -803)"><g transform="translate(0 795)" fill="none" stroke="#707070" stroke-width="1"><circle cx="23" cy="23" r="23" stroke="none"/><circle cx="23" cy="23" r="22.5" fill="none"/></g><g transform="translate(20 795)" fill="none" stroke="#707070" stroke-width="1"><circle cx="23" cy="23" r="23" stroke="none"/><circle cx="23" cy="23" r="22.5" fill="none"/></g></g><g transform="translate(236 -803)"><g transform="translate(0 795)" fill="none" stroke="#707070" stroke-width="1"><circle cx="23" cy="23" r="23" stroke="none"/><circle cx="23" cy="23" r="22.5" fill="none"/></g><g transform="translate(20 795)" fill="none" stroke="#707070" stroke-width="1"><circle cx="23" cy="23" r="23" stroke="none"/><circle cx="23" cy="23" r="22.5" fill="none"/></g></g><g transform="translate(283 -803)"><g transform="translate(0 795)" fill="none" stroke="#707070" stroke-width="1"><circle cx="23" cy="23" r="23" stroke="none"/><circle cx="23" cy="23" r="22.5" fill="none"/></g><g transform="translate(20 795)" fill="none" stroke="#707070" stroke-width="1"><circle cx="23" cy="23" r="23" stroke="none"/><circle cx="23" cy="23" r="22.5" fill="none"/></g></g><g transform="translate(-46 -773)"><g transform="translate(0 795)" fill="none" stroke="#707070" stroke-width="1"><circle cx="23" cy="23" r="23" stroke="none"/><circle cx="23" cy="23" r="22.5" fill="none"/></g><g transform="translate(20 795)" fill="none" stroke="#707070" stroke-width="1"><circle cx="23" cy="23" r="23" stroke="none"/><circle cx="23" cy="23" r="22.5" fill="none"/></g></g><g transform="translate(1 -773)"><g transform="translate(0 795)" fill="none" stroke="#707070" stroke-width="1"><circle cx="23" cy="23" r="23" stroke="none"/><circle cx="23" cy="23" r="22.5" fill="none"/></g><g transform="translate(20 795)" fill="none" stroke="#707070" stroke-width="1"><circle cx="23" cy="23" r="23" stroke="none"/><circle cx="23" cy="23" r="22.5" fill="none"/></g></g><g transform="translate(48 -773)"><g transform="translate(0 795)" fill="none" stroke="#707070" stroke-width="1"><circle cx="23" cy="23" r="23" stroke="none"/><circle cx="23" cy="23" r="22.5" fill="none"/></g><g transform="translate(20 795)" fill="none" stroke="#707070" stroke-width="1"><circle cx="23" cy="23" r="23" stroke="none"/><circle cx="23" cy="23" r="22.5" fill="none"/></g></g><g transform="translate(95 -773)"><g transform="translate(0 795)" fill="none" stroke="#707070" stroke-width="1"><circle cx="23" cy="23" r="23" stroke="none"/><circle cx="23" cy="23" r="22.5" fill="none"/></g><g transform="translate(20 795)" fill="none" stroke="#707070" stroke-width="1"><circle cx="23" cy="23" r="23" stroke="none"/><circle cx="23" cy="23" r="22.5" fill="none"/></g></g><g transform="translate(142 -773)"><g transform="translate(0 795)" fill="none" stroke="#707070" stroke-width="1"><circle cx="23" cy="23" r="23" stroke="none"/><circle cx="23" cy="23" r="22.5" fill="none"/></g><g transform="translate(20 795)" fill="none" stroke="#707070" stroke-width="1"><circle cx="23" cy="23" r="23" stroke="none"/><circle cx="23" cy="23" r="22.5" fill="none"/></g></g><g transform="translate(189 -773)"><g transform="translate(0 795)" fill="none" stroke="#707070" stroke-width="1"><circle cx="23" cy="23" r="23" stroke="none"/><circle cx="23" cy="23" r="22.5" fill="none"/></g><g transform="translate(20 795)" fill="none" stroke="#707070" stroke-width="1"><circle cx="23" cy="23" r="23" stroke="none"/><circle cx="23" cy="23" r="22.5" fill="none"/></g></g><g transform="translate(236 -773)"><g transform="translate(0 795)" fill="none" stroke="#707070" stroke-width="1"><circle cx="23" cy="23" r="23" stroke="none"/><circle cx="23" cy="23" r="22.5" fill="none"/></g><g transform="translate(20 795)" fill="none" stroke="#707070" stroke-width="1"><circle cx="23" cy="23" r="23" stroke="none"/><circle cx="23" cy="23" r="22.5" fill="none"/></g></g><g transform="translate(283 -773)"><g transform="translate(0 795)" fill="none" stroke="#707070" stroke-width="1"><circle cx="23" cy="23" r="23" stroke="none"/><circle cx="23" cy="23" r="22.5" fill="none"/></g><g transform="translate(20 795)" fill="none" stroke="#707070" stroke-width="1"><circle cx="23" cy="23" r="23" stroke="none"/><circle cx="23" cy="23" r="22.5" fill="none"/></g></g><g transform="translate(-46 -743)"><g transform="translate(0 795)" fill="none" stroke="#707070" stroke-width="1"><circle cx="23" cy="23" r="23" stroke="none"/><circle cx="23" cy="23" r="22.5" fill="none"/></g><g transform="translate(20 795)" fill="none" stroke="#707070" stroke-width="1"><circle cx="23" cy="23" r="23" stroke="none"/><circle cx="23" cy="23" r="22.5" fill="none"/></g></g><g transform="translate(1 -743)"><g transform="translate(0 795)" fill="none" stroke="#707070" stroke-width="1"><circle cx="23" cy="23" r="23" stroke="none"/><circle cx="23" cy="23" r="22.5" fill="none"/></g><g transform="translate(20 795)" fill="none" stroke="#707070" stroke-width="1"><circle cx="23" cy="23" r="23" stroke="none"/><circle cx="23" cy="23" r="22.5" fill="none"/></g></g><g transform="translate(48 -743)"><g transform="translate(0 795)" fill="none" stroke="#707070" stroke-width="1"><circle cx="23" cy="23" r="23" stroke="none"/><circle cx="23" cy="23" r="22.5" fill="none"/></g><g transform="translate(20 795)" fill="none" stroke="#707070" stroke-width="1"><circle cx="23" cy="23" r="23" stroke="none"/><circle cx="23" cy="23" r="22.5" fill="none"/></g></g><g transform="translate(95 -743)"><g transform="translate(0 795)" fill="none" stroke="#707070" stroke-width="1"><circle cx="23" cy="23" r="23" stroke="none"/><circle cx="23" cy="23" r="22.5" fill="none"/></g><g transform="translate(20 795)" fill="none" stroke="#707070" stroke-width="1"><circle cx="23" cy="23" r="23" stroke="none"/><circle cx="23" cy="23" r="22.5" fill="none"/></g></g><g transform="translate(142 -743)"><g transform="translate(0 795)" fill="none" stroke="#707070" stroke-width="1"><circle cx="23" cy="23" r="23" stroke="none"/><circle cx="23" cy="23" r="22.5" fill="none"/></g><g transform="translate(20 795)" fill="none" stroke="#707070" stroke-width="1"><circle cx="23" cy="23" r="23" stroke="none"/><circle cx="23" cy="23" r="22.5" fill="none"/></g></g><g transform="translate(189 -743)"><g transform="translate(0 795)" fill="none" stroke="#707070" stroke-width="1"><circle cx="23" cy="23" r="23" stroke="none"/><circle cx="23" cy="23" r="22.5" fill="none"/></g><g transform="translate(20 795)" fill="none" stroke="#707070" stroke-width="1"><circle cx="23" cy="23" r="23" stroke="none"/><circle cx="23" cy="23" r="22.5" fill="none"/></g></g><g transform="translate(236 -743)"><g transform="translate(0 795)" fill="none" stroke="#707070" stroke-width="1"><circle cx="23" cy="23" r="23" stroke="none"/><circle cx="23" cy="23" r="22.5" fill="none"/></g><g transform="translate(20 795)" fill="none" stroke="#707070" stroke-width="1"><circle cx="23" cy="23" r="23" stroke="none"/><circle cx="23" cy="23" r="22.5" fill="none"/></g></g><g transform="translate(283 -743)"><g transform="translate(0 795)" fill="none" stroke="#707070" stroke-width="1"><circle cx="23" cy="23" r="23" stroke="none"/><circle cx="23" cy="23" r="22.5" fill="none"/></g><g transform="translate(20 795)" fill="none" stroke="#707070" stroke-width="1"><circle cx="23" cy="23" r="23" stroke="none"/><circle cx="23" cy="23" r="22.5" fill="none"/></g></g><g transform="translate(-46 -713)"><g transform="translate(0 795)" fill="none" stroke="#707070" stroke-width="1"><circle cx="23" cy="23" r="23" stroke="none"/><circle cx="23" cy="23" r="22.5" fill="none"/></g><g transform="translate(20 795)" fill="none" stroke="#707070" stroke-width="1"><circle cx="23" cy="23" r="23" stroke="none"/><circle cx="23" cy="23" r="22.5" fill="none"/></g></g><g transform="translate(1 -713)"><g transform="translate(0 795)" fill="none" stroke="#707070" stroke-width="1"><circle cx="23" cy="23" r="23" stroke="none"/><circle cx="23" cy="23" r="22.5" fill="none"/></g><g transform="translate(20 795)" fill="none" stroke="#707070" stroke-width="1"><circle cx="23" cy="23" r="23" stroke="none"/><circle cx="23" cy="23" r="22.5" fill="none"/></g></g><g transform="translate(48 -713)"><g transform="translate(0 795)" fill="none" stroke="#707070" stroke-width="1"><circle cx="23" cy="23" r="23" stroke="none"/><circle cx="23" cy="23" r="22.5" fill="none"/></g><g transform="translate(20 795)" fill="none" stroke="#707070" stroke-width="1"><circle cx="23" cy="23" r="23" stroke="none"/><circle cx="23" cy="23" r="22.5" fill="none"/></g></g><g transform="translate(95 -713)"><g transform="translate(0 795)" fill="none" stroke="#707070" stroke-width="1"><circle cx="23" cy="23" r="23" stroke="none"/><circle cx="23" cy="23" r="22.5" fill="none"/></g><g transform="translate(20 795)" fill="none" stroke="#707070" stroke-width="1"><circle cx="23" cy="23" r="23" stroke="none"/><circle cx="23" cy="23" r="22.5" fill="none"/></g></g><g transform="translate(142 -713)"><g transform="translate(0 795)" fill="none" stroke="#707070" stroke-width="1"><circle cx="23" cy="23" r="23" stroke="none"/><circle cx="23" cy="23" r="22.5" fill="none"/></g><g transform="translate(20 795)" fill="none" stroke="#707070" stroke-width="1"><circle cx="23" cy="23" r="23" stroke="none"/><circle cx="23" cy="23" r="22.5" fill="none"/></g></g><g transform="translate(189 -713)"><g transform="translate(0 795)" fill="none" stroke="#707070" stroke-width="1"><circle cx="23" cy="23" r="23" stroke="none"/><circle cx="23" cy="23" r="22.5" fill="none"/></g><g transform="translate(20 795)" fill="none" stroke="#707070" stroke-width="1"><circle cx="23" cy="23" r="23" stroke="none"/><circle cx="23" cy="23" r="22.5" fill="none"/></g></g><g transform="translate(236 -713)"><g transform="translate(0 795)" fill="none" stroke="#707070" stroke-width="1"><circle cx="23" cy="23" r="23" stroke="none"/><circle cx="23" cy="23" r="22.5" fill="none"/></g><g transform="translate(20 795)" fill="none" stroke="#707070" stroke-width="1"><circle cx="23" cy="23" r="23" stroke="none"/><circle cx="23" cy="23" r="22.5" fill="none"/></g></g><g transform="translate(283 -713)"><g transform="translate(0 795)" fill="none" stroke="#707070" stroke-width="1"><circle cx="23" cy="23" r="23" stroke="none"/><circle cx="23" cy="23" r="22.5" fill="none"/></g><g transform="translate(20 795)" fill="none" stroke="#707070" stroke-width="1"><circle cx="23" cy="23" r="23" stroke="none"/><circle cx="23" cy="23" r="22.5" fill="none"/></g></g><g transform="translate(-46 -683)"><g transform="translate(0 795)" fill="none" stroke="#707070" stroke-width="1"><circle cx="23" cy="23" r="23" stroke="none"/><circle cx="23" cy="23" r="22.5" fill="none"/></g><g transform="translate(20 795)" fill="none" stroke="#707070" stroke-width="1"><circle cx="23" cy="23" r="23" stroke="none"/><circle cx="23" cy="23" r="22.5" fill="none"/></g></g><g transform="translate(1 -683)"><g transform="translate(0 795)" fill="none" stroke="#707070" stroke-width="1"><circle cx="23" cy="23" r="23" stroke="none"/><circle cx="23" cy="23" r="22.5" fill="none"/></g><g transform="translate(20 795)" fill="none" stroke="#707070" stroke-width="1"><circle cx="23" cy="23" r="23" stroke="none"/><circle cx="23" cy="23" r="22.5" fill="none"/></g></g><g transform="translate(48 -683)"><g transform="translate(0 795)" fill="none" stroke="#707070" stroke-width="1"><circle cx="23" cy="23" r="23" stroke="none"/><circle cx="23" cy="23" r="22.5" fill="none"/></g><g transform="translate(20 795)" fill="none" stroke="#707070" stroke-width="1"><circle cx="23" cy="23" r="23" stroke="none"/><circle cx="23" cy="23" r="22.5" fill="none"/></g></g><g transform="translate(95 -683)"><g transform="translate(0 795)" fill="none" stroke="#707070" stroke-width="1"><circle cx="23" cy="23" r="23" stroke="none"/><circle cx="23" cy="23" r="22.5" fill="none"/></g><g transform="translate(20 795)" fill="none" stroke="#707070" stroke-width="1"><circle cx="23" cy="23" r="23" stroke="none"/><circle cx="23" cy="23" r="22.5" fill="none"/></g></g><g transform="translate(142 -683)"><g transform="translate(0 795)" fill="none" stroke="#707070" stroke-width="1"><circle cx="23" cy="23" r="23" stroke="none"/><circle cx="23" cy="23" r="22.5" fill="none"/></g><g transform="translate(20 795)" fill="none" stroke="#707070" stroke-width="1"><circle cx="23" cy="23" r="23" stroke="none"/><circle cx="23" cy="23" r="22.5" fill="none"/></g></g><g transform="translate(189 -683)"><g transform="translate(0 795)" fill="none" stroke="#707070" stroke-width="1"><circle cx="23" cy="23" r="23" stroke="none"/><circle cx="23" cy="23" r="22.5" fill="none"/></g><g transform="translate(20 795)" fill="none" stroke="#707070" stroke-width="1"><circle cx="23" cy="23" r="23" stroke="none"/><circle cx="23" cy="23" r="22.5" fill="none"/></g></g><g transform="translate(236 -683)"><g transform="translate(0 795)" fill="none" stroke="#707070" stroke-width="1"><circle cx="23" cy="23" r="23" stroke="none"/><circle cx="23" cy="23" r="22.5" fill="none"/></g><g transform="translate(20 795)" fill="none" stroke="#707070" stroke-width="1"><circle cx="23" cy="23" r="23" stroke="none"/><circle cx="23" cy="23" r="22.5" fill="none"/></g></g><g transform="translate(283 -683)"><g transform="translate(0 795)" fill="none" stroke="#707070" stroke-width="1"><circle cx="23" cy="23" r="23" stroke="none"/><circle cx="23" cy="23" r="22.5" fill="none"/></g><g transform="translate(20 795)" fill="none" stroke="#707070" stroke-width="1"><circle cx="23" cy="23" r="23" stroke="none"/><circle cx="23" cy="23" r="22.5" fill="none"/></g></g><g transform="translate(-46 -653)"><g transform="translate(0 795)" fill="none" stroke="#707070" stroke-width="1"><circle cx="23" cy="23" r="23" stroke="none"/><circle cx="23" cy="23" r="22.5" fill="none"/></g><g transform="translate(20 795)" fill="none" stroke="#707070" stroke-width="1"><circle cx="23" cy="23" r="23" stroke="none"/><circle cx="23" cy="23" r="22.5" fill="none"/></g></g><g transform="translate(1 -653)"><g transform="translate(0 795)" fill="none" stroke="#707070" stroke-width="1"><circle cx="23" cy="23" r="23" stroke="none"/><circle cx="23" cy="23" r="22.5" fill="none"/></g><g transform="translate(20 795)" fill="none" stroke="#707070" stroke-width="1"><circle cx="23" cy="23" r="23" stroke="none"/><circle cx="23" cy="23" r="22.5" fill="none"/></g></g><g transform="translate(48 -653)"><g transform="translate(0 795)" fill="none" stroke="#707070" stroke-width="1"><circle cx="23" cy="23" r="23" stroke="none"/><circle cx="23" cy="23" r="22.5" fill="none"/></g><g transform="translate(20 795)" fill="none" stroke="#707070" stroke-width="1"><circle cx="23" cy="23" r="23" stroke="none"/><circle cx="23" cy="23" r="22.5" fill="none"/></g></g><g transform="translate(95 -653)"><g transform="translate(0 795)" fill="none" stroke="#707070" stroke-width="1"><circle cx="23" cy="23" r="23" stroke="none"/><circle cx="23" cy="23" r="22.5" fill="none"/></g><g transform="translate(20 795)" fill="none" stroke="#707070" stroke-width="1"><circle cx="23" cy="23" r="23" stroke="none"/><circle cx="23" cy="23" r="22.5" fill="none"/></g></g><g transform="translate(142 -653)"><g transform="translate(0 795)" fill="none" stroke="#707070" stroke-width="1"><circle cx="23" cy="23" r="23" stroke="none"/><circle cx="23" cy="23" r="22.5" fill="none"/></g><g transform="translate(20 795)" fill="none" stroke="#707070" stroke-width="1"><circle cx="23" cy="23" r="23" stroke="none"/><circle cx="23" cy="23" r="22.5" fill="none"/></g></g><g transform="translate(189 -653)"><g transform="translate(0 795)" fill="none" stroke="#707070" stroke-width="1"><circle cx="23" cy="23" r="23" stroke="none"/><circle cx="23" cy="23" r="22.5" fill="none"/></g><g transform="translate(20 795)" fill="none" stroke="#707070" stroke-width="1"><circle cx="23" cy="23" r="23" stroke="none"/><circle cx="23" cy="23" r="22.5" fill="none"/></g></g><g transform="translate(236 -653)"><g transform="translate(0 795)" fill="none" stroke="#707070" stroke-width="1"><circle cx="23" cy="23" r="23" stroke="none"/><circle cx="23" cy="23" r="22.5" fill="none"/></g><g transform="translate(20 795)" fill="none" stroke="#707070" stroke-width="1"><circle cx="23" cy="23" r="23" stroke="none"/><circle cx="23" cy="23" r="22.5" fill="none"/></g></g><g transform="translate(283 -653)"><g transform="translate(0 795)" fill="none" stroke="#707070" stroke-width="1"><circle cx="23" cy="23" r="23" stroke="none"/><circle cx="23" cy="23" r="22.5" fill="none"/></g><g transform="translate(20 795)" fill="none" stroke="#707070" stroke-width="1"><circle cx="23" cy="23" r="23" stroke="none"/><circle cx="23" cy="23" r="22.5" fill="none"/></g></g><g transform="translate(-46 -623)"><g transform="translate(0 795)" fill="none" stroke="#707070" stroke-width="1"><circle cx="23" cy="23" r="23" stroke="none"/><circle cx="23" cy="23" r="22.5" fill="none"/></g><g transform="translate(20 795)" fill="none" stroke="#707070" stroke-width="1"><circle cx="23" cy="23" r="23" stroke="none"/><circle cx="23" cy="23" r="22.5" fill="none"/></g></g><g transform="translate(1 -623)"><g transform="translate(0 795)" fill="none" stroke="#707070" stroke-width="1"><circle cx="23" cy="23" r="23" stroke="none"/><circle cx="23" cy="23" r="22.5" fill="none"/></g><g transform="translate(20 795)" fill="none" stroke="#707070" stroke-width="1"><circle cx="23" cy="23" r="23" stroke="none"/><circle cx="23" cy="23" r="22.5" fill="none"/></g></g><g transform="translate(48 -623)"><g transform="translate(0 795)" fill="none" stroke="#707070" stroke-width="1"><circle cx="23" cy="23" r="23" stroke="none"/><circle cx="23" cy="23" r="22.5" fill="none"/></g><g transform="translate(20 795)" fill="none" stroke="#707070" stroke-width="1"><circle cx="23" cy="23" r="23" stroke="none"/><circle cx="23" cy="23" r="22.5" fill="none"/></g></g><g transform="translate(95 -623)"><g transform="translate(0 795)" fill="none" stroke="#707070" stroke-width="1"><circle cx="23" cy="23" r="23" stroke="none"/><circle cx="23" cy="23" r="22.5" fill="none"/></g><g transform="translate(20 795)" fill="none" stroke="#707070" stroke-width="1"><circle cx="23" cy="23" r="23" stroke="none"/><circle cx="23" cy="23" r="22.5" fill="none"/></g></g><g transform="translate(142 -623)"><g transform="translate(0 795)" fill="none" stroke="#707070" stroke-width="1"><circle cx="23" cy="23" r="23" stroke="none"/><circle cx="23" cy="23" r="22.5" fill="none"/></g><g transform="translate(20 795)" fill="none" stroke="#707070" stroke-width="1"><circle cx="23" cy="23" r="23" stroke="none"/><circle cx="23" cy="23" r="22.5" fill="none"/></g></g><g transform="translate(189 -623)"><g transform="translate(0 795)" fill="none" stroke="#707070" stroke-width="1"><circle cx="23" cy="23" r="23" stroke="none"/><circle cx="23" cy="23" r="22.5" fill="none"/></g><g transform="translate(20 795)" fill="none" stroke="#707070" stroke-width="1"><circle cx="23" cy="23" r="23" stroke="none"/><circle cx="23" cy="23" r="22.5" fill="none"/></g></g><g transform="translate(236 -623)"><g transform="translate(0 795)" fill="none" stroke="#707070" stroke-width="1"><circle cx="23" cy="23" r="23" stroke="none"/><circle cx="23" cy="23" r="22.5" fill="none"/></g><g transform="translate(20 795)" fill="none" stroke="#707070" stroke-width="1"><circle cx="23" cy="23" r="23" stroke="none"/><circle cx="23" cy="23" r="22.5" fill="none"/></g></g><g transform="translate(283 -623)"><g transform="translate(0 795)" fill="none" stroke="#707070" stroke-width="1"><circle cx="23" cy="23" r="23" stroke="none"/><circle cx="23" cy="23" r="22.5" fill="none"/></g><g transform="translate(20 795)" fill="none" stroke="#707070" stroke-width="1"><circle cx="23" cy="23" r="23" stroke="none"/><circle cx="23" cy="23" r="22.5" fill="none"/></g></g><g transform="translate(-46 -593)"><g transform="translate(0 795)" fill="none" stroke="#707070" stroke-width="1"><circle cx="23" cy="23" r="23" stroke="none"/><circle cx="23" cy="23" r="22.5" fill="none"/></g><g transform="translate(20 795)" fill="none" stroke="#707070" stroke-width="1"><circle cx="23" cy="23" r="23" stroke="none"/><circle cx="23" cy="23" r="22.5" fill="none"/></g></g><g transform="translate(1 -593)"><g transform="translate(0 795)" fill="none" stroke="#707070" stroke-width="1"><circle cx="23" cy="23" r="23" stroke="none"/><circle cx="23" cy="23" r="22.5" fill="none"/></g><g transform="translate(20 795)" fill="none" stroke="#707070" stroke-width="1"><circle cx="23" cy="23" r="23" stroke="none"/><circle cx="23" cy="23" r="22.5" fill="none"/></g></g><g transform="translate(48 -593)"><g transform="translate(0 795)" fill="none" stroke="#707070" stroke-width="1"><circle cx="23" cy="23" r="23" stroke="none"/><circle cx="23" cy="23" r="22.5" fill="none"/></g><g transform="translate(20 795)" fill="none" stroke="#707070" stroke-width="1"><circle cx="23" cy="23" r="23" stroke="none"/><circle cx="23" cy="23" r="22.5" fill="none"/></g></g><g transform="translate(95 -593)"><g transform="translate(0 795)" fill="none" stroke="#707070" stroke-width="1"><circle cx="23" cy="23" r="23" stroke="none"/><circle cx="23" cy="23" r="22.5" fill="none"/></g><g transform="translate(20 795)" fill="none" stroke="#707070" stroke-width="1"><circle cx="23" cy="23" r="23" stroke="none"/><circle cx="23" cy="23" r="22.5" fill="none"/></g></g><g transform="translate(142 -593)"><g transform="translate(0 795)" fill="none" stroke="#707070" stroke-width="1"><circle cx="23" cy="23" r="23" stroke="none"/><circle cx="23" cy="23" r="22.5" fill="none"/></g><g transform="translate(20 795)" fill="none" stroke="#707070" stroke-width="1"><circle cx="23" cy="23" r="23" stroke="none"/><circle cx="23" cy="23" r="22.5" fill="none"/></g></g><g transform="translate(189 -593)"><g transform="translate(0 795)" fill="none" stroke="#707070" stroke-width="1"><circle cx="23" cy="23" r="23" stroke="none"/><circle cx="23" cy="23" r="22.5" fill="none"/></g><g transform="translate(20 795)" fill="none" stroke="#707070" stroke-width="1"><circle cx="23" cy="23" r="23" stroke="none"/><circle cx="23" cy="23" r="22.5" fill="none"/></g></g><g transform="translate(236 -593)"><g transform="translate(0 795)" fill="none" stroke="#707070" stroke-width="1"><circle cx="23" cy="23" r="23" stroke="none"/><circle cx="23" cy="23" r="22.5" fill="none"/></g><g transform="translate(20 795)" fill="none" stroke="#707070" stroke-width="1"><circle cx="23" cy="23" r="23" stroke="none"/><circle cx="23" cy="23" r="22.5" fill="none"/></g></g><g transform="translate(283 -593)"><g transform="translate(0 795)" fill="none" stroke="#707070" stroke-width="1"><circle cx="23" cy="23" r="23" stroke="none"/><circle cx="23" cy="23" r="22.5" fill="none"/></g><g transform="translate(20 795)" fill="none" stroke="#707070" stroke-width="1"><circle cx="23" cy="23" r="23" stroke="none"/><circle cx="23" cy="23" r="22.5" fill="none"/></g></g><g transform="translate(-46 -563)"><g transform="translate(0 795)" fill="none" stroke="#707070" stroke-width="1"><circle cx="23" cy="23" r="23" stroke="none"/><circle cx="23" cy="23" r="22.5" fill="none"/></g><g transform="translate(20 795)" fill="none" stroke="#707070" stroke-width="1"><circle cx="23" cy="23" r="23" stroke="none"/><circle cx="23" cy="23" r="22.5" fill="none"/></g></g><g transform="translate(1 -563)"><g transform="translate(0 795)" fill="none" stroke="#707070" stroke-width="1"><circle cx="23" cy="23" r="23" stroke="none"/><circle cx="23" cy="23" r="22.5" fill="none"/></g><g transform="translate(20 795)" fill="none" stroke="#707070" stroke-width="1"><circle cx="23" cy="23" r="23" stroke="none"/><circle cx="23" cy="23" r="22.5" fill="none"/></g></g><g transform="translate(48 -563)"><g transform="translate(0 795)" fill="none" stroke="#707070" stroke-width="1"><circle cx="23" cy="23" r="23" stroke="none"/><circle cx="23" cy="23" r="22.5" fill="none"/></g><g transform="translate(20 795)" fill="none" stroke="#707070" stroke-width="1"><circle cx="23" cy="23" r="23" stroke="none"/><circle cx="23" cy="23" r="22.5" fill="none"/></g></g><g transform="translate(95 -563)"><g transform="translate(0 795)" fill="none" stroke="#707070" stroke-width="1"><circle cx="23" cy="23" r="23" stroke="none"/><circle cx="23" cy="23" r="22.5" fill="none"/></g><g transform="translate(20 795)" fill="none" stroke="#707070" stroke-width="1"><circle cx="23" cy="23" r="23" stroke="none"/><circle cx="23" cy="23" r="22.5" fill="none"/></g></g><g transform="translate(142 -563)"><g transform="translate(0 795)" fill="none" stroke="#707070" stroke-width="1"><circle cx="23" cy="23" r="23" stroke="none"/><circle cx="23" cy="23" r="22.5" fill="none"/></g><g transform="translate(20 795)" fill="none" stroke="#707070" stroke-width="1"><circle cx="23" cy="23" r="23" stroke="none"/><circle cx="23" cy="23" r="22.5" fill="none"/></g></g><g transform="translate(189 -563)"><g transform="translate(0 795)" fill="none" stroke="#707070" stroke-width="1"><circle cx="23" cy="23" r="23" stroke="none"/><circle cx="23" cy="23" r="22.5" fill="none"/></g><g transform="translate(20 795)" fill="none" stroke="#707070" stroke-width="1"><circle cx="23" cy="23" r="23" stroke="none"/><circle cx="23" cy="23" r="22.5" fill="none"/></g></g><g transform="translate(236 -563)"><g transform="translate(0 795)" fill="none" stroke="#707070" stroke-width="1"><circle cx="23" cy="23" r="23" stroke="none"/><circle cx="23" cy="23" r="22.5" fill="none"/></g><g transform="translate(20 795)" fill="none" stroke="#707070" stroke-width="1"><circle cx="23" cy="23" r="23" stroke="none"/><circle cx="23" cy="23" r="22.5" fill="none"/></g></g><g transform="translate(283 -563)"><g transform="translate(0 795)" fill="none" stroke="#707070" stroke-width="1"><circle cx="23" cy="23" r="23" stroke="none"/><circle cx="23" cy="23" r="22.5" fill="none"/></g><g transform="translate(20 795)" fill="none" stroke="#707070" stroke-width="1"><circle cx="23" cy="23" r="23" stroke="none"/><circle cx="23" cy="23" r="22.5" fill="none"/></g></g><g transform="translate(-46 -533)"><g transform="translate(0 795)" fill="none" stroke="#707070" stroke-width="1"><circle cx="23" cy="23" r="23" stroke="none"/><circle cx="23" cy="23" r="22.5" fill="none"/></g><g transform="translate(20 795)" fill="none" stroke="#707070" stroke-width="1"><circle cx="23" cy="23" r="23" stroke="none"/><circle cx="23" cy="23" r="22.5" fill="none"/></g></g><g transform="translate(1 -533)"><g transform="translate(0 795)" fill="none" stroke="#707070" stroke-width="1"><circle cx="23" cy="23" r="23" stroke="none"/><circle cx="23" cy="23" r="22.5" fill="none"/></g><g transform="translate(20 795)" fill="none" stroke="#707070" stroke-width="1"><circle cx="23" cy="23" r="23" stroke="none"/><circle cx="23" cy="23" r="22.5" fill="none"/></g></g><g transform="translate(48 -533)"><g transform="translate(0 795)" fill="none" stroke="#707070" stroke-width="1"><circle cx="23" cy="23" r="23" stroke="none"/><circle cx="23" cy="23" r="22.5" fill="none"/></g><g transform="translate(20 795)" fill="none" stroke="#707070" stroke-width="1"><circle cx="23" cy="23" r="23" stroke="none"/><circle cx="23" cy="23" r="22.5" fill="none"/></g></g><g transform="translate(95 -533)"><g transform="translate(0 795)" fill="none" stroke="#707070" stroke-width="1"><circle cx="23" cy="23" r="23" stroke="none"/><circle cx="23" cy="23" r="22.5" fill="none"/></g><g transform="translate(20 795)" fill="none" stroke="#707070" stroke-width="1"><circle cx="23" cy="23" r="23" stroke="none"/><circle cx="23" cy="23" r="22.5" fill="none"/></g></g><g transform="translate(142 -533)"><g transform="translate(0 795)" fill="none" stroke="#707070" stroke-width="1"><circle cx="23" cy="23" r="23" stroke="none"/><circle cx="23" cy="23" r="22.5" fill="none"/></g><g transform="translate(20 795)" fill="none" stroke="#707070" stroke-width="1"><circle cx="23" cy="23" r="23" stroke="none"/><circle cx="23" cy="23" r="22.5" fill="none"/></g></g><g transform="translate(189 -533)"><g transform="translate(0 795)" fill="none" stroke="#707070" stroke-width="1"><circle cx="23" cy="23" r="23" stroke="none"/><circle cx="23" cy="23" r="22.5" fill="none"/></g><g transform="translate(20 795)" fill="none" stroke="#707070" stroke-width="1"><circle cx="23" cy="23" r="23" stroke="none"/><circle cx="23" cy="23" r="22.5" fill="none"/></g></g><g transform="translate(236 -533)"><g transform="translate(0 795)" fill="none" stroke="#707070" stroke-width="1"><circle cx="23" cy="23" r="23" stroke="none"/><circle cx="23" cy="23" r="22.5" fill="none"/></g><g transform="translate(20 795)" fill="none" stroke="#707070" stroke-width="1"><circle cx="23" cy="23" r="23" stroke="none"/><circle cx="23" cy="23" r="22.5" fill="none"/></g></g><g transform="translate(283 -533)"><g transform="translate(0 795)" fill="none" stroke="#707070" stroke-width="1"><circle cx="23" cy="23" r="23" stroke="none"/><circle cx="23" cy="23" r="22.5" fill="none"/></g><g transform="translate(20 795)" fill="none" stroke="#707070" stroke-width="1"><circle cx="23" cy="23" r="23" stroke="none"/><circle cx="23" cy="23" r="22.5" fill="none"/></g></g><g transform="translate(-46 -503)"><g transform="translate(0 795)" fill="none" stroke="#707070" stroke-width="1"><circle cx="23" cy="23" r="23" stroke="none"/><circle cx="23" cy="23" r="22.5" fill="none"/></g><g transform="translate(20 795)" fill="none" stroke="#707070" stroke-width="1"><circle cx="23" cy="23" r="23" stroke="none"/><circle cx="23" cy="23" r="22.5" fill="none"/></g></g><g transform="translate(1 -503)"><g transform="translate(0 795)" fill="none" stroke="#707070" stroke-width="1"><circle cx="23" cy="23" r="23" stroke="none"/><circle cx="23" cy="23" r="22.5" fill="none"/></g><g transform="translate(20 795)" fill="none" stroke="#707070" stroke-width="1"><circle cx="23" cy="23" r="23" stroke="none"/><circle cx="23" cy="23" r="22.5" fill="none"/></g></g><g transform="translate(48 -503)"><g transform="translate(0 795)" fill="none" stroke="#707070" stroke-width="1"><circle cx="23" cy="23" r="23" stroke="none"/><circle cx="23" cy="23" r="22.5" fill="none"/></g><g transform="translate(20 795)" fill="none" stroke="#707070" stroke-width="1"><circle cx="23" cy="23" r="23" stroke="none"/><circle cx="23" cy="23" r="22.5" fill="none"/></g></g><g transform="translate(95 -503)"><g transform="translate(0 795)" fill="none" stroke="#707070" stroke-width="1"><circle cx="23" cy="23" r="23" stroke="none"/><circle cx="23" cy="23" r="22.5" fill="none"/></g><g transform="translate(20 795)" fill="none" stroke="#707070" stroke-width="1"><circle cx="23" cy="23" r="23" stroke="none"/><circle cx="23" cy="23" r="22.5" fill="none"/></g></g><g transform="translate(142 -503)"><g transform="translate(0 795)" fill="none" stroke="#707070" stroke-width="1"><circle cx="23" cy="23" r="23" stroke="none"/><circle cx="23" cy="23" r="22.5" fill="none"/></g><g transform="translate(20 795)" fill="none" stroke="#707070" stroke-width="1"><circle cx="23" cy="23" r="23" stroke="none"/><circle cx="23" cy="23" r="22.5" fill="none"/></g></g><g transform="translate(189 -503)"><g transform="translate(0 795)" fill="none" stroke="#707070" stroke-width="1"><circle cx="23" cy="23" r="23" stroke="none"/><circle cx="23" cy="23" r="22.5" fill="none"/></g><g transform="translate(20 795)" fill="none" stroke="#707070" stroke-width="1"><circle cx="23" cy="23" r="23" stroke="none"/><circle cx="23" cy="23" r="22.5" fill="none"/></g></g><g transform="translate(236 -503)"><g transform="translate(0 795)" fill="none" stroke="#707070" stroke-width="1"><circle cx="23" cy="23" r="23" stroke="none"/><circle cx="23" cy="23" r="22.5" fill="none"/></g><g transform="translate(20 795)" fill="none" stroke="#707070" stroke-width="1"><circle cx="23" cy="23" r="23" stroke="none"/><circle cx="23" cy="23" r="22.5" fill="none"/></g></g><g transform="translate(283 -503)"><g transform="translate(0 795)" fill="none" stroke="#707070" stroke-width="1"><circle cx="23" cy="23" r="23" stroke="none"/><circle cx="23" cy="23" r="22.5" fill="none"/></g><g transform="translate(20 795)" fill="none" stroke="#707070" stroke-width="1"><circle cx="23" cy="23" r="23" stroke="none"/><circle cx="23" cy="23" r="22.5" fill="none"/></g></g><g transform="translate(-46 -473)"><g transform="translate(0 795)" fill="none" stroke="#707070" stroke-width="1"><circle cx="23" cy="23" r="23" stroke="none"/><circle cx="23" cy="23" r="22.5" fill="none"/></g><g transform="translate(20 795)" fill="none" stroke="#707070" stroke-width="1"><circle cx="23" cy="23" r="23" stroke="none"/><circle cx="23" cy="23" r="22.5" fill="none"/></g></g><g transform="translate(1 -473)"><g transform="translate(0 795)" fill="none" stroke="#707070" stroke-width="1"><circle cx="23" cy="23" r="23" stroke="none"/><circle cx="23" cy="23" r="22.5" fill="none"/></g><g transform="translate(20 795)" fill="none" stroke="#707070" stroke-width="1"><circle cx="23" cy="23" r="23" stroke="none"/><circle cx="23" cy="23" r="22.5" fill="none"/></g></g><g transform="translate(48 -473)"><g transform="translate(0 795)" fill="none" stroke="#707070" stroke-width="1"><circle cx="23" cy="23" r="23" stroke="none"/><circle cx="23" cy="23" r="22.5" fill="none"/></g><g transform="translate(20 795)" fill="none" stroke="#707070" stroke-width="1"><circle cx="23" cy="23" r="23" stroke="none"/><circle cx="23" cy="23" r="22.5" fill="none"/></g></g><g transform="translate(95 -473)"><g transform="translate(0 795)" fill="none" stroke="#707070" stroke-width="1"><circle cx="23" cy="23" r="23" stroke="none"/><circle cx="23" cy="23" r="22.5" fill="none"/></g><g transform="translate(20 795)" fill="none" stroke="#707070" stroke-width="1"><circle cx="23" cy="23" r="23" stroke="none"/><circle cx="23" cy="23" r="22.5" fill="none"/></g></g><g transform="translate(142 -473)"><g transform="translate(0 795)" fill="none" stroke="#707070" stroke-width="1"><circle cx="23" cy="23" r="23" stroke="none"/><circle cx="23" cy="23" r="22.5" fill="none"/></g><g transform="translate(20 795)" fill="none" stroke="#707070" stroke-width="1"><circle cx="23" cy="23" r="23" stroke="none"/><circle cx="23" cy="23" r="22.5" fill="none"/></g></g><g transform="translate(189 -473)"><g transform="translate(0 795)" fill="none" stroke="#707070" stroke-width="1"><circle cx="23" cy="23" r="23" stroke="none"/><circle cx="23" cy="23" r="22.5" fill="none"/></g><g transform="translate(20 795)" fill="none" stroke="#707070" stroke-width="1"><circle cx="23" cy="23" r="23" stroke="none"/><circle cx="23" cy="23" r="22.5" fill="none"/></g></g><g transform="translate(236 -473)"><g transform="translate(0 795)" fill="none" stroke="#707070" stroke-width="1"><circle cx="23" cy="23" r="23" stroke="none"/><circle cx="23" cy="23" r="22.5" fill="none"/></g><g transform="translate(20 795)" fill="none" stroke="#707070" stroke-width="1"><circle cx="23" cy="23" r="23" stroke="none"/><circle cx="23" cy="23" r="22.5" fill="none"/></g></g><g transform="translate(283 -473)"><g transform="translate(0 795)" fill="none" stroke="#707070" stroke-width="1"><circle cx="23" cy="23" r="23" stroke="none"/><circle cx="23" cy="23" r="22.5" fill="none"/></g><g transform="translate(20 795)" fill="none" stroke="#707070" stroke-width="1"><circle cx="23" cy="23" r="23" stroke="none"/><circle cx="23" cy="23" r="22.5" fill="none"/></g></g></g></g></svg>